{
	"asset":{
		"generator":"Khronos glTF Blender I/O v4.4.56",
		"version":"2.0"
	},
	"scene":0,
	"scenes":[
		{
			"extras":{
				"gscatter":{
					"scatter_surface":{}
				}
			},
			"name":"Scene",
			"nodes":[
				1
			]
		}
	],
	"nodes":[
		{
			"mesh":0,
			"name":"Tab",
			"translation":[
				0,
				0.1395469307899475,
				0
			]
		},
		{
			"children":[
				0
			],
			"mesh":1,
			"name":"can"
		}
	],
	"meshes":[
		{
			"name":"CanTab",
			"primitives":[
				{
					"attributes":{
						"POSITION":0,
						"NORMAL":1,
						"TEXCOORD_0":2
					},
					"indices":3
				}
			]
		},
		{
			"name":"cylinder",
			"primitives":[
				{
					"attributes":{
						"POSITION":4,
						"NORMAL":5,
						"TEXCOORD_0":6
					},
					"indices":7
				}
			]
		}
	],
	"accessors":[
		{
			"bufferView":0,
			"componentType":5126,
			"count":650,
			"max":[
				0.10328245162963867,
				0.3453875780105591,
				0.04694851487874985
			],
			"min":[
				-0.05091589689254761,
				0.33007410168647766,
				-0.07133328169584274
			],
			"type":"VEC3"
		},
		{
			"bufferView":1,
			"componentType":5126,
			"count":650,
			"type":"VEC3"
		},
		{
			"bufferView":2,
			"componentType":5126,
			"count":650,
			"type":"VEC2"
		},
		{
			"bufferView":3,
			"componentType":5123,
			"count":3504,
			"type":"SCALAR"
		},
		{
			"bufferView":4,
			"componentType":5126,
			"count":24089,
			"max":[
				0.1988764852285385,
				0.49049365520477295,
				0.19890336692333221
			],
			"min":[
				-0.19892700016498566,
				-0.3492709696292877,
				-0.19890011847019196
			],
			"type":"VEC3"
		},
		{
			"bufferView":5,
			"componentType":5126,
			"count":24089,
			"type":"VEC3"
		},
		{
			"bufferView":6,
			"componentType":5126,
			"count":24089,
			"type":"VEC2"
		},
		{
			"bufferView":7,
			"componentType":5123,
			"count":138000,
			"type":"SCALAR"
		}
	],
	"bufferViews":[
		{
			"buffer":0,
			"byteLength":7800,
			"byteOffset":0,
			"target":34962
		},
		{
			"buffer":0,
			"byteLength":7800,
			"byteOffset":7800,
			"target":34962
		},
		{
			"buffer":0,
			"byteLength":5200,
			"byteOffset":15600,
			"target":34962
		},
		{
			"buffer":0,
			"byteLength":7008,
			"byteOffset":20800,
			"target":34963
		},
		{
			"buffer":0,
			"byteLength":289068,
			"byteOffset":27808,
			"target":34962
		},
		{
			"buffer":0,
			"byteLength":289068,
			"byteOffset":316876,
			"target":34962
		},
		{
			"buffer":0,
			"byteLength":192712,
			"byteOffset":605944,
			"target":34962
		},
		{
			"buffer":0,
			"byteLength":276000,
			"byteOffset":798656,
			"target":34963
		}
	],
	"buffers":[
		{
			"byteLength":1074656,
			"uri":"can.bin"
		}
	]
}
