{
	"asset":{
		"generator":"Khronos glTF Blender I/O v4.4.56",
		"version":"2.0"
	},
	"scene":0,
	"scenes":[
		{
			"name":"Scene",
			"nodes":[
				0
			]
		}
	],
	"nodes":[
		{
			"mesh":0,
			"name":"KuimiBeerCan"
		}
	],
	"materials":[
		{
			"doubleSided":true,
			"name":"Material",
			"pbrMetallicRoughness":{
				"baseColorFactor":[
					0.800000011920929,
					0.800000011920929,
					0.800000011920929,
					1
				],
				"metallicFactor":0.7795275449752808,
				"roughnessFactor":0.5
			}
		},
		{
			"doubleSided":true,
			"name":"obal",
			"pbrMetallicRoughness":{
				"baseColorTexture":{
					"index":0
				},
				"metallicFactor":0.6499999761581421,
				"roughnessFactor":0.25
			}
		},
		{
			"doubleSided":true,
			"name":"zlate",
			"pbrMetallicRoughness":{
				"baseColorTexture":{
					"index":1
				},
				"metallicFactor":0.6499999761581421,
				"roughnessFactor":0.25
			}
		}
	],
	"meshes":[
		{
			"name":"KuimiBeerCan",
			"primitives":[
				{
					"attributes":{
						"POSITION":0,
						"NORMAL":1,
						"TEXCOORD_0":2
					},
					"indices":3,
					"material":0
				},
				{
					"attributes":{
						"POSITION":4,
						"NORMAL":5,
						"TEXCOORD_0":6
					},
					"indices":7,
					"material":1
				},
				{
					"attributes":{
						"POSITION":8,
						"NORMAL":9,
						"TEXCOORD_0":10
					},
					"indices":11,
					"material":2
				}
			]
		}
	],
	"textures":[
		{
			"sampler":0,
			"source":0
		},
		{
			"sampler":0,
			"source":0
		}
	],
	"images":[
		{
			"mimeType":"image/png",
			"name":"martiner",
			"uri":"martiner.png"
		}
	],
	"accessors":[
		{
			"bufferView":0,
			"componentType":5126,
			"count":4563,
			"max":[
				0.10128475725650787,
				0.5005658864974976,
				0.10145635157823563
			],
			"min":[
				-0.10128479450941086,
				-1.1086906681612163e-07,
				-0.10145638883113861
			],
			"type":"VEC3"
		},
		{
			"bufferView":1,
			"componentType":5126,
			"count":4563,
			"type":"VEC3"
		},
		{
			"bufferView":2,
			"componentType":5126,
			"count":4563,
			"type":"VEC2"
		},
		{
			"bufferView":3,
			"componentType":5123,
			"count":17592,
			"type":"SCALAR"
		},
		{
			"bufferView":4,
			"componentType":5126,
			"count":110,
			"max":[
				0.1012846976518631,
				0.46117573976516724,
				0.10145632922649384
			],
			"min":[
				-0.10128479450941086,
				0.029621554538607597,
				-0.10145638883113861
			],
			"type":"VEC3"
		},
		{
			"bufferView":5,
			"componentType":5126,
			"count":110,
			"type":"VEC3"
		},
		{
			"bufferView":6,
			"componentType":5126,
			"count":110,
			"type":"VEC2"
		},
		{
			"bufferView":7,
			"componentType":5123,
			"count":324,
			"type":"SCALAR"
		},
		{
			"bufferView":8,
			"componentType":5126,
			"count":110,
			"max":[
				0.1012846976518631,
				0.49103689193725586,
				0.10145632922649384
			],
			"min":[
				-0.10128479450941086,
				0.46234455704689026,
				-0.10145638883113861
			],
			"type":"VEC3"
		},
		{
			"bufferView":9,
			"componentType":5126,
			"count":110,
			"type":"VEC3"
		},
		{
			"bufferView":10,
			"componentType":5126,
			"count":110,
			"type":"VEC2"
		},
		{
			"bufferView":11,
			"componentType":5123,
			"count":324,
			"type":"SCALAR"
		}
	],
	"bufferViews":[
		{
			"buffer":0,
			"byteLength":54756,
			"byteOffset":0,
			"target":34962
		},
		{
			"buffer":0,
			"byteLength":54756,
			"byteOffset":54756,
			"target":34962
		},
		{
			"buffer":0,
			"byteLength":36504,
			"byteOffset":109512,
			"target":34962
		},
		{
			"buffer":0,
			"byteLength":35184,
			"byteOffset":146016,
			"target":34963
		},
		{
			"buffer":0,
			"byteLength":1320,
			"byteOffset":181200,
			"target":34962
		},
		{
			"buffer":0,
			"byteLength":1320,
			"byteOffset":182520,
			"target":34962
		},
		{
			"buffer":0,
			"byteLength":880,
			"byteOffset":183840,
			"target":34962
		},
		{
			"buffer":0,
			"byteLength":648,
			"byteOffset":184720,
			"target":34963
		},
		{
			"buffer":0,
			"byteLength":1320,
			"byteOffset":185368,
			"target":34962
		},
		{
			"buffer":0,
			"byteLength":1320,
			"byteOffset":186688,
			"target":34962
		},
		{
			"buffer":0,
			"byteLength":880,
			"byteOffset":188008,
			"target":34962
		},
		{
			"buffer":0,
			"byteLength":648,
			"byteOffset":188888,
			"target":34963
		}
	],
	"samplers":[
		{
			"magFilter":9729,
			"minFilter":9987
		}
	],
	"buffers":[
		{
			"byteLength":189536,
			"uri":"plecho.bin"
		}
	]
}
