{
	"asset":{
		"generator":"Khronos glTF Blender I/O v4.4.56",
		"version":"2.0"
	},
	"scene":0,
	"scenes":[
		{
			"name":"Scene",
			"nodes":[
				3
			]
		}
	],
	"nodes":[
		{
			"mesh":0,
			"name":"Circle",
			"rotation":[
				0,
				0,
				0.43162253499031067,
				0.9020543098449707
			],
			"translation":[
				0,
				0,
				0.5493412017822266
			]
		},
		{
			"mesh":1,
			"name":"Circle.001",
			"translation":[
				0,
				-0.27445125579833984,
				0
			]
		},
		{
			"mesh":2,
			"name":"Cube"
		},
		{
			"children":[
				0,
				1,
				2
			],
			"name":"Empty",
			"translation":[
				-8.130148887634277,
				15.552167892456055,
				-6.051516532897949
			]
		}
	],
	"animations":[
		{
			"channels":[
				{
					"sampler":0,
					"target":{
						"node":0,
						"path":"rotation"
					}
				}
			],
			"name":"CircleAction",
			"samplers":[
				{
					"input":16,
					"interpolation":"LINEAR",
					"output":17
				}
			]
		}
	],
	"materials":[
		{
			"doubleSided":true,
			"name":"windmill",
			"pbrMetallicRoughness":{
				"baseColorFactor":[
					0.5969206094741821,
					0.5969206094741821,
					0.5969206094741821,
					1
				],
				"metallicFactor":0,
				"roughnessFactor":0.9000000357627869
			}
		},
		{
			"doubleSided":true,
			"name":"windmillGreen",
			"pbrMetallicRoughness":{
				"baseColorFactor":[
					0.14995859563350677,
					0.5149182081222534,
					0.059511374682188034,
					1
				],
				"metallicFactor":0,
				"roughnessFactor":0.5
			}
		}
	],
	"meshes":[
		{
			"name":"Circle",
			"primitives":[
				{
					"attributes":{
						"POSITION":0,
						"NORMAL":1,
						"TEXCOORD_0":2
					},
					"indices":3,
					"material":0
				}
			]
		},
		{
			"name":"Circle.001",
			"primitives":[
				{
					"attributes":{
						"POSITION":4,
						"NORMAL":5,
						"TEXCOORD_0":6
					},
					"indices":7,
					"material":0
				}
			]
		},
		{
			"name":"Cube.001",
			"primitives":[
				{
					"attributes":{
						"POSITION":8,
						"NORMAL":9,
						"TEXCOORD_0":10
					},
					"indices":11,
					"material":0
				},
				{
					"attributes":{
						"POSITION":12,
						"NORMAL":13,
						"TEXCOORD_0":14
					},
					"indices":15,
					"material":1
				}
			]
		}
	],
	"accessors":[
		{
			"bufferView":0,
			"componentType":5126,
			"count":3542,
			"max":[
				4.978826522827148,
				5.715734958648682,
				0.501632809638977
			],
			"min":[
				-4.978317737579346,
				-2.9240190982818604,
				-0.2762754559516907
			],
			"type":"VEC3"
		},
		{
			"bufferView":1,
			"componentType":5126,
			"count":3542,
			"type":"VEC3"
		},
		{
			"bufferView":2,
			"componentType":5126,
			"count":3542,
			"type":"VEC2"
		},
		{
			"bufferView":3,
			"componentType":5123,
			"count":21168,
			"type":"SCALAR"
		},
		{
			"bufferView":4,
			"componentType":5126,
			"count":48,
			"max":[
				0.32651039958000183,
				5.764967454524594e-07,
				0.32651039958000183
			],
			"min":[
				-0.32651039958000183,
				-15.714556694030762,
				-0.32651039958000183
			],
			"type":"VEC3"
		},
		{
			"bufferView":5,
			"componentType":5126,
			"count":48,
			"type":"VEC3"
		},
		{
			"bufferView":6,
			"componentType":5126,
			"count":48,
			"type":"VEC2"
		},
		{
			"bufferView":7,
			"componentType":5123,
			"count":132,
			"type":"SCALAR"
		},
		{
			"bufferView":8,
			"componentType":5126,
			"count":255,
			"max":[
				0.29235225915908813,
				0.29109370708465576,
				0.2912557125091553
			],
			"min":[
				-0.29235169291496277,
				-0.2914767563343048,
				-0.9580606818199158
			],
			"type":"VEC3"
		},
		{
			"bufferView":9,
			"componentType":5126,
			"count":255,
			"type":"VEC3"
		},
		{
			"bufferView":10,
			"componentType":5126,
			"count":255,
			"type":"VEC2"
		},
		{
			"bufferView":11,
			"componentType":5123,
			"count":888,
			"type":"SCALAR"
		},
		{
			"bufferView":12,
			"componentType":5126,
			"count":247,
			"max":[
				0.29235225915908813,
				0.2864200472831726,
				-0.6686826944351196
			],
			"min":[
				-0.29235169291496277,
				-0.2745836079120636,
				-1.2438887357711792
			],
			"type":"VEC3"
		},
		{
			"bufferView":13,
			"componentType":5126,
			"count":247,
			"type":"VEC3"
		},
		{
			"bufferView":14,
			"componentType":5126,
			"count":247,
			"type":"VEC2"
		},
		{
			"bufferView":15,
			"componentType":5123,
			"count":888,
			"type":"SCALAR"
		},
		{
			"bufferView":16,
			"componentType":5126,
			"count":61,
			"max":[
				2
			],
			"min":[
				0
			],
			"type":"SCALAR"
		},
		{
			"bufferView":17,
			"componentType":5126,
			"count":61,
			"type":"VEC4"
		}
	],
	"bufferViews":[
		{
			"buffer":0,
			"byteLength":42504,
			"byteOffset":0,
			"target":34962
		},
		{
			"buffer":0,
			"byteLength":42504,
			"byteOffset":42504,
			"target":34962
		},
		{
			"buffer":0,
			"byteLength":28336,
			"byteOffset":85008,
			"target":34962
		},
		{
			"buffer":0,
			"byteLength":42336,
			"byteOffset":113344,
			"target":34963
		},
		{
			"buffer":0,
			"byteLength":576,
			"byteOffset":155680,
			"target":34962
		},
		{
			"buffer":0,
			"byteLength":576,
			"byteOffset":156256,
			"target":34962
		},
		{
			"buffer":0,
			"byteLength":384,
			"byteOffset":156832,
			"target":34962
		},
		{
			"buffer":0,
			"byteLength":264,
			"byteOffset":157216,
			"target":34963
		},
		{
			"buffer":0,
			"byteLength":3060,
			"byteOffset":157480,
			"target":34962
		},
		{
			"buffer":0,
			"byteLength":3060,
			"byteOffset":160540,
			"target":34962
		},
		{
			"buffer":0,
			"byteLength":2040,
			"byteOffset":163600,
			"target":34962
		},
		{
			"buffer":0,
			"byteLength":1776,
			"byteOffset":165640,
			"target":34963
		},
		{
			"buffer":0,
			"byteLength":2964,
			"byteOffset":167416,
			"target":34962
		},
		{
			"buffer":0,
			"byteLength":2964,
			"byteOffset":170380,
			"target":34962
		},
		{
			"buffer":0,
			"byteLength":1976,
			"byteOffset":173344,
			"target":34962
		},
		{
			"buffer":0,
			"byteLength":1776,
			"byteOffset":175320,
			"target":34963
		},
		{
			"buffer":0,
			"byteLength":244,
			"byteOffset":177096
		},
		{
			"buffer":0,
			"byteLength":976,
			"byteOffset":177340
		}
	],
	"buffers":[
		{
			"byteLength":178316,
			"uri":"propeller.bin"
		}
	]
}
